<svg width="778" height="197" viewBox="0 0 778 197" fill="none" xmlns="http://www.w3.org/2000/svg">
<rect x="197" y="197" width="197" height="197" rx="40" transform="rotate(180 197 197)" fill="url(#paint0_linear_21_10)"/>
<path d="M144.1 90.7057C150.1 94.1698 150.1 102.83 144.1 106.294L76.54 145.3C70.54 148.764 63.04 144.434 63.04 137.506V59.4942C63.04 52.566 70.54 48.2358 76.54 51.6999L144.1 90.7057Z" fill="white"/>
<path d="M237.52 149V57.608H256.848V133H293.968V149H237.52ZM337.159 77.832C346.802 77.832 354.439 80.6053 360.071 86.152C365.703 91.6133 368.519 99.4213 368.519 109.576V118.792H323.463C323.634 124.168 325.212 128.392 328.199 131.464C331.271 134.536 335.495 136.072 340.871 136.072C345.308 136.072 349.362 135.645 353.031 134.792C356.786 133.853 360.626 132.445 364.551 130.568V145.288C361.052 146.995 357.426 148.232 353.671 149C349.916 149.853 345.351 150.28 339.975 150.28C332.978 150.28 326.791 149 321.415 146.44C316.039 143.795 311.815 139.869 308.743 134.664C305.671 129.373 304.135 122.675 304.135 114.568C304.135 106.461 305.5 99.6773 308.231 94.216C311.047 88.7547 314.93 84.6587 319.879 81.928C324.828 79.1973 330.588 77.832 337.159 77.832ZM337.287 91.4C333.532 91.4 330.46 92.5947 328.071 94.984C325.682 97.3733 324.274 101.085 323.847 106.12H350.599C350.514 101.939 349.362 98.44 347.143 95.624C345.01 92.808 341.724 91.4 337.287 91.4ZM414.704 57.608C426.48 57.608 435.056 60.168 440.432 65.288C445.893 70.3227 448.624 77.2773 448.624 86.152C448.624 91.528 447.515 96.52 445.296 101.128C443.077 105.736 439.365 109.448 434.16 112.264C429.04 115.08 422.043 116.488 413.168 116.488H404.848V149H385.52V57.608H414.704ZM413.68 73.48H404.848V100.616H411.248C416.709 100.616 421.019 99.5493 424.176 97.416C427.419 95.1973 429.04 91.656 429.04 86.792C429.04 77.9173 423.92 73.48 413.68 73.48ZM483.431 149H464.359V51.72H483.431V149ZM532.031 77.704C541.418 77.704 548.586 79.752 553.535 83.848C558.57 87.8587 561.087 94.0453 561.087 102.408V149H547.775L544.063 139.528H543.551C540.564 143.283 537.407 146.013 534.079 147.72C530.751 149.427 526.186 150.28 520.383 150.28C514.154 150.28 508.991 148.488 504.895 144.904C500.799 141.32 498.751 135.731 498.751 128.136C498.751 120.712 501.354 115.251 506.559 111.752C511.764 108.253 519.572 106.291 529.983 105.864L542.143 105.48V102.408C542.143 98.7387 541.162 96.0507 539.199 94.344C537.322 92.6373 534.676 91.784 531.263 91.784C527.85 91.784 524.522 92.296 521.279 93.32C518.036 94.2587 514.794 95.4533 511.551 96.904L505.279 83.976C508.948 82.0987 513.087 80.6053 517.695 79.496C522.303 78.3013 527.082 77.704 532.031 77.704ZM542.143 116.616L534.719 116.872C528.575 117.043 524.308 118.152 521.919 120.2C519.53 122.248 518.335 124.936 518.335 128.264C518.335 131.165 519.188 133.256 520.895 134.536C522.602 135.731 524.82 136.328 527.551 136.328C531.647 136.328 535.103 135.133 537.919 132.744C540.735 130.269 542.143 126.813 542.143 122.376V116.616ZM570.625 79.112H591.489L604.673 118.408C605.356 120.371 605.868 122.333 606.209 124.296C606.55 126.259 606.806 128.349 606.977 130.568H607.361C607.617 128.349 607.958 126.259 608.385 124.296C608.812 122.333 609.366 120.371 610.049 118.408L622.977 79.112H643.457L613.889 157.96C611.158 165.213 607.276 170.632 602.241 174.216C597.206 177.885 591.361 179.72 584.705 179.72C582.486 179.72 580.609 179.592 579.073 179.336C577.537 179.165 576.172 178.952 574.977 178.696V163.592C575.83 163.763 576.94 163.933 578.305 164.104C579.67 164.275 581.078 164.36 582.529 164.36C586.54 164.36 589.697 163.123 592.001 160.648C594.305 158.259 596.054 155.357 597.249 151.944L598.401 148.488L570.625 79.112ZM682.284 77.832C691.927 77.832 699.564 80.6053 705.196 86.152C710.828 91.6133 713.644 99.4213 713.644 109.576V118.792H668.588C668.759 124.168 670.337 128.392 673.324 131.464C676.396 134.536 680.62 136.072 685.996 136.072C690.433 136.072 694.487 135.645 698.156 134.792C701.911 133.853 705.751 132.445 709.676 130.568V145.288C706.177 146.995 702.551 148.232 698.796 149C695.041 149.853 690.476 150.28 685.1 150.28C678.103 150.28 671.916 149 666.54 146.44C661.164 143.795 656.94 139.869 653.868 134.664C650.796 129.373 649.26 122.675 649.26 114.568C649.26 106.461 650.625 99.6773 653.356 94.216C656.172 88.7547 660.055 84.6587 665.004 81.928C669.953 79.1973 675.713 77.832 682.284 77.832ZM682.412 91.4C678.657 91.4 675.585 92.5947 673.196 94.984C670.807 97.3733 669.399 101.085 668.972 106.12H695.724C695.639 101.939 694.487 98.44 692.268 95.624C690.135 92.808 686.849 91.4 682.412 91.4ZM768.149 77.832C769.088 77.832 770.197 77.8747 771.477 77.96C772.757 78.0453 773.781 78.1733 774.549 78.344L773.141 96.264C772.458 96.0933 771.562 95.9653 770.453 95.88C769.344 95.7093 768.362 95.624 767.509 95.624C764.266 95.624 761.152 96.2213 758.165 97.416C755.178 98.5253 752.746 100.36 750.869 102.92C749.077 105.48 748.181 108.979 748.181 113.416V149H729.109V79.112H743.573L746.389 90.888H747.285C749.333 87.304 752.149 84.232 755.733 81.672C759.317 79.112 763.456 77.832 768.149 77.832Z" fill="black"/>
<defs>
<linearGradient id="paint0_linear_21_10" x1="372.987" y1="362.152" x2="222.938" y2="208.163" gradientUnits="userSpaceOnUse">
<stop stop-color="#4755F2"/>
<stop offset="1" stop-color="#AC33F1"/>
</linearGradient>
</defs>
</svg>
